# xmcd CD database file
#
# Track frame offsets:
#	150
#	14502
#	29269
#	41759
#	55072
#	69040
#	84030
#	98203
#	113791
#	129561
#	142083
#	155804
#	167460
#	179122
#	195121
#
# Disc length: 2806 seconds
#
# Revision: 0
# Processed by: cddbd v1.5.2PL0 Copyright (c) Steve Scherf et al.
# Submitted via: CDex 1.51
#
DISCID=c10af40f
DTITLE=Marc Pircher - Du bist eine Sünde wert
DYEAR=2007
DGENRE=Country
TTITLE0=01_marc_pircher_ - - du_bist_eine_suende_wert
TTITLE1=02_marc_pircher_ - - sag_wo_ist_die_zeit_hin
TTITLE2=03_marc_pircher_ - - marianne
TTITLE3=04_marc_pircher_ - - immer_gegen_mitternacht
TTITLE4=05_marc_pircher_ - - zum_glueck_gibts_musikanten
TTITLE5=06_marc_pircher_ - - der_allererste_kuss
TTITLE6=07_marc_pircher_ - - seit_du_da_bist
TTITLE7=08_marc_pircher_ - - da_bleibt_kein_stein_auf_dem_andern
TTITLE8=09_marc_pircher_ - - und_ich_nehm_dich_in_den_arm
TTITLE9=10_marc_pircher_ - - fahr_nach_tirol
TTITLE10=11_marc_pircher_ - - a_bissl_singen
TTITLE11=12_marc_pircher_ - - wenn_im_zillertal_a_boarischer_erklingt
TTITLE12=13_marc_pircher_ - - ein_bisschen_vor_zu_dir
TTITLE13=14_marc_pircher_ - - ich_geh_fuer_dich_durchs_feuer
TTITLE14=15_marc_pircher_ - - dem_land_tirol_die_treue_(marc_pircher_and_die_innsbrucker_boehmische)
EXTD=YEAR: 2007
EXTT0=
EXTT1=
EXTT2=
EXTT3=
EXTT4=
EXTT5=
EXTT6=
EXTT7=
EXTT8=
EXTT9=
EXTT10=
EXTT11=
EXTT12=
EXTT13=
EXTT14=
PLAYORDER=
